<svg width="71" height="76" fill="none" xmlns="http://www.w3.org/2000/svg"><path d="M.5 10c0-5.523 4.477-10 10-10h50c5.523 0 10 4.477 10 10v56c0 5.523-4.477 10-10 10h-50c-5.523 0-10-4.477-10-10V10Z" fill="#DDF4FF"/><g clip-path="url(#a)"><g clip-path="url(#b)" fill="#E74040"><path d="M33.095 34.495c.037-.03.077-.057.116-.085.099-.071.202-.135.31-.193.042-.023.083-.046.126-.066a2.764 2.764 0 0 1 3.04.416c.044.039.08.082.122.123.084.08.163.167.236.257.042.052.077.109.113.164.06.087.115.177.164.27a2.802 2.802 0 0 1 .195.474c.02.066.04.13.057.197.023.103.04.206.051.31.008.065.018.13.02.195a2.62 2.62 0 0 1-.008.343c-.004.056-.003.112-.01.169a2.755 2.755 0 0 1-.113.483c0 .008-.003.016-.006.025l1.51.871 2.81-4.872-15.574-8.994-2.81 4.872 9.298 5.367c.108-.119.226-.228.353-.326Zm-12.441-4.707L25.151 22l.973.562-4.497 7.788-.973-.562Zm25.334 10.085.563-.975 3.894 2.249-.563.974-3.894-2.248Zm-5.429-1.84 1.686-2.92 3.894 2.249-1.686 2.92-3.894-2.249Z"/><path d="M36.17 37.965a.54.54 0 0 0-.097-.13c.088-.091.166-.193.23-.303a1.693 1.693 0 0 0-.613-2.307 1.702 1.702 0 0 0-.366-.151c-.038-.012-.076-.019-.112-.027a1.73 1.73 0 0 0-.282-.037c-.04 0-.08-.005-.12-.004a1.675 1.675 0 0 0-1.184 2.831.54.54 0 0 0-.097.128l-7.617 15.221a.563.563 0 0 0 1.006.503l7.366-14.739v14.488a.562.562 0 0 0 1.125 0V38.955l7.363 14.734a.563.563 0 0 0 1.007-.503l-7.61-15.221Z"/></g></g><defs><clipPath id="a"><path fill="#fff" transform="translate(19.5 22)" d="M0 0h32v32H0z"/></clipPath><clipPath id="b"><path fill="#fff" transform="translate(19.5 22)" d="M0 0h32v32H0z"/></clipPath></defs></svg>