<svg width="70" height="76" fill="none" xmlns="http://www.w3.org/2000/svg"><path d="M0 10C0 4.477 4.477 0 10 0h50c5.523 0 10 4.477 10 10v56c0 5.523-4.477 10-10 10H10C4.477 76 0 71.523 0 66V10Z" fill="#F6F7FB"/><g clip-path="url(#a)"><g clip-path="url(#b)" fill="#E74040"><path d="M20.714 42c0 .315.256.57.571.57h27.429a.572.572 0 0 0 .571-.57V24.284H20.714V42Zm29.715-20H19.57a.571.571 0 0 0 0 1.143h30.86a.572.572 0 0 0 0-1.143ZM39.571 51.715h-4v-6.857h.571a.572.572 0 0 0 .572-.572v-.571h-3.429v.571c0 .316.256.572.572.572h.571v6.857h-4c-.947 0-1.714.767-1.714 1.714v.572h12.571v-.572c0-.947-.767-1.714-1.714-1.714Z"/></g></g><defs><clipPath id="a"><path fill="#fff" transform="translate(19 22)" d="M0 0h32v32H0z"/></clipPath><clipPath id="b"><path fill="#fff" transform="translate(19 22)" d="M0 0h32v32H0z"/></clipPath></defs></svg>