<svg width="25" height="20" fill="none" xmlns="http://www.w3.org/2000/svg"><g clip-path="url(#a)"><path d="M8.91 19c8.303 0 12.845-6.927 12.845-12.923 0-.194 0-.39-.009-.585A9.228 9.228 0 0 0 24 3.136a9.105 9.105 0 0 1-2.597.717 4.565 4.565 0 0 0 1.99-2.516c-.888.53-1.858.9-2.87 1.098a4.491 4.491 0 0 0-5.425-.897 4.537 4.537 0 0 0-1.985 2.134 4.579 4.579 0 0 0-.285 2.909 12.754 12.754 0 0 1-5.153-1.378 12.839 12.839 0 0 1-4.151-3.37 4.581 4.581 0 0 0-.492 3.312A4.554 4.554 0 0 0 4.923 7.9a4.545 4.545 0 0 1-2.043-.565v.063a4.572 4.572 0 0 0 1.021 2.876A4.516 4.516 0 0 0 6.5 11.853a4.374 4.374 0 0 1-1.19.16c-.283 0-.565-.026-.844-.08.289.903.85 1.692 1.607 2.258a4.496 4.496 0 0 0 2.61.895 9.019 9.019 0 0 1-5.61 1.948A8.62 8.62 0 0 1 2 16.972 12.783 12.783 0 0 0 8.91 19Z" fill="#8D5CF6"/></g><defs><clipPath id="a"><path fill="#fff" transform="translate(.5 .117)" d="M0 0h24v19.765H0z"/></clipPath></defs></svg>